<svg id="visual" viewBox="0 0 900 600" width="900" height="600" xmlns="http://www.w3.org/2000/svg" xmlns:xlink="http://www.w3.org/1999/xlink" version="1.1"><rect x="0" y="0" width="900" height="600" fill="#3e8ecc"></rect><g fill="#32267b"><circle r="72" cx="163" cy="383"></circle><circle r="32" cx="711" cy="558"></circle><circle r="40" cx="607" cy="159"></circle><circle r="42" cx="346" cy="478"></circle><circle r="69" cx="672" cy="405"></circle><circle r="33" cx="446" cy="46"></circle><circle r="42" cx="109" cy="534"></circle><circle r="54" cx="190" cy="169"></circle><circle r="57" cx="48" cy="139"></circle><circle r="33" cx="507" cy="469"></circle><circle r="42" cx="808" cy="280"></circle><circle r="39" cx="897" cy="116"></circle><circle r="37" cx="453" cy="222"></circle><circle r="67" cx="319" cy="326"></circle><circle r="40" cx="268" cy="37"></circle><circle r="60" cx="890" cy="444"></circle><circle r="68" cx="692" cy="27"></circle><circle r="68" cx="4" cy="342"></circle><circle r="45" cx="244" cy="594"></circle></g></svg>